<svg xmlns="http://www.w3.org/2000/svg" fill="currentColor" viewBox="0 0 48 36" height="28"><rect id="backgroundrect" width="100%" height="100%" x="0" y="0" fill="none" stroke="none"/><g class="currentLayer" style=""><title>Layer 1</title><path d="M4.5,0 C2.019531,0 0,2.0195310000000006 0,4.5 L0,4.925781000000001 L24,22 L48,4.925781000000001 L48,4.5 C48,2.0195310000000006 45.980469,0 43.5,0 zM5.351563,2 L42.644531,2 L24,15 zM0,7.027343999999999 L0,31.5 C0,33.980469 2.019531,36 4.5,36 L43.5,36 C45.980469,36 48,33.980469 48,31.5 L48,7.027343999999999 L42,11.296875 L42,34 L6,34 L6,11.296875 z" id="svg_1" class=""/></g></svg>