<svg width="13" height="16" viewBox="0 0 13 16" fill="none" xmlns="http://www.w3.org/2000/svg">
<path d="M13 13.2706C13 14.7756 11.7756 16 10.2705 16H2.8686C1.36356 16 0.13916 14.7756 0.13916 13.2706C0.13916 12.6498 0.642341 12.1467 1.26305 12.1467C1.88376 12.1467 2.38694 12.6498 2.38694 13.2706C2.38694 13.5361 2.60305 13.7522 2.8686 13.7522H10.2705C10.5361 13.7522 10.7522 13.5361 10.7522 13.2706C10.7522 12.6498 11.2554 12.1467 11.8761 12.1467C12.4968 12.1467 13 12.6498 13 13.2706ZM5.77498 11.0148C5.98595 11.2254 6.27174 11.3439 6.56973 11.3439C6.86772 11.3439 7.15351 11.2254 7.36448 11.0148L10.6825 7.69639C11.1215 7.25743 11.1215 6.54585 10.6825 6.10689C10.2436 5.66825 9.53166 5.66793 9.09334 6.10689L7.69394 7.50629V1.12389C7.69394 0.503181 7.19076 0 6.57005 0C5.94934 0 5.44616 0.503181 5.44616 1.12389V7.50661L4.04644 6.10689C3.60748 5.66825 2.8959 5.66825 2.45694 6.10689C2.01798 6.54585 2.01798 7.25743 2.45694 7.69639L5.77498 11.0148Z" fill="#333333"/>
</svg>
