<svg width="32" height="38" viewBox="0 0 32 38" fill="none" xmlns="http://www.w3.org/2000/svg"><path d="M1 5V1h30v36H1v-4" stroke="#fff" stroke-width="1.2"/><g filter="url(#b)" clip-path="url(#a)"><path d="m15.183 29.857 1.277-2.016c-1.423-1.95-2.767-4.325-4.033-7.125-1.02-2.308-2.218-5.904-3.596-10.789a18.862 18.862 0 0 1-.252-.957 6.923 6.923 0 0 1-.69.033H6.815c-.291 0-.532-.011-.722-.033 1.994 8.48 5.024 15.443 9.09 20.887Zm6.184-23.122c1.915.347 3.26.52 4.033.52 1.042 0 2.257-.162 3.646-.487l.202-.033c.246 0 .46.095.639.285.179.18.268.376.268.588 0 .471-.23.768-.689.891-1.03.247-2.067.403-3.108.47-1.311 5.87-3.68 11.741-7.109 17.612a126.026 126.026 0 0 1-3.276 5.276c-.168.224-.41.364-.723.42a.862.862 0 0 1-.723-.353C9.856 25.976 6.44 18.302 4.277 8.902l-1.68-.168a21.012 21.012 0 0 1-1.429-.184c-.66-.113-.991-.42-.991-.925 0-.269.1-.481.302-.638.202-.168.398-.252.588-.252.516.134 1.417.257 2.706.37 1.288.1 2.722.15 4.302.15 1.58 0 3.237-.173 4.974-.52.257 0 .465.095.621.285.157.18.236.381.236.605a.89.89 0 0 1-.202.572c-.134.168-.375.285-.723.353-.336.056-.739.112-1.21.168-.459.044-.93.095-1.411.15.851 3.406 1.675 6.123 2.47 8.15 1.457 3.709 2.997 6.762 4.621 9.16 1.77-2.97 3.098-5.524 3.983-7.664 1.434-3.528 2.47-6.71 3.109-9.544-2.263-.146-3.546-.404-3.848-.773a.87.87 0 0 1-.219-.589c0-.224.09-.425.269-.604.19-.18.398-.27.622-.27Z" fill="#fff"/></g><defs><clipPath id="a"><path fill="#fff" transform="translate(1 5)" d="M0 0h28.679v27.604H0z"/></clipPath><filter id="b" x="-1.257" y="6.735" width="32.847" height="28.41" filterUnits="userSpaceOnUse" color-interpolation-filters="sRGB"><feFlood flood-opacity="0" result="BackgroundImageFix"/><feColorMatrix in="SourceAlpha" values="0 0 0 0 0 0 0 0 0 0 0 0 0 0 0 0 0 0 127 0" result="hardAlpha"/><feOffset dy="1.434"/><feGaussianBlur stdDeviation=".717"/><feComposite in2="hardAlpha" operator="out"/><feColorMatrix values="0 0 0 0 0 0 0 0 0 0 0 0 0 0 0 0 0 0 0.25 0"/><feBlend in2="BackgroundImageFix" result="effect1_dropShadow_5_4"/><feBlend in="SourceGraphic" in2="effect1_dropShadow_5_4" result="shape"/></filter></defs></svg>